# xmcd CD database file
#
# Track frame offsets:
#	150
#	52405
#	105142
#	148812
#	194287
#
# Disc length: 4065 seconds
#
# Revision: 0
# Processed by: cddbd v1.4PL0 Copyright (c) Steve Scherf et al.
# Submitted via: CDex 1.50Beta7
#
DISCID=450fdf05
DTITLE=The Relaxation Company - Ten Minutes To Relax - Program 2
DYEAR=1995
DGENRE=New Age
TTITLE0=Quick Relaxer
TTITLE1=Body Scan
TTITLE2=Mini Vacation
TTITLE3=Letting Go Of Your Thoughts
TTITLE4=Beethoven - Sonate 'Pathetique' - Op. 13
EXTD=YEAR: 1995
EXTT0=
EXTT1=
EXTT2=
EXTT3=
EXTT4=
PLAYORDER=
